#!OML:ASF F:\VICON\USERDATA\INSTALL\Justin_Nancy\Justin_Nancy.ASF
:FULLY-SPECIFIED
:DEGREES
16
root 1.33454 17.5346 -24.2692 -1.55462 -3.83833 0.0854044
lowerback 4.74775 1.17101 0.166606
upperback -0.181672 1.61781 1.64202
thorax -2.89169 0.815236 1.47981
lowerneck -15.1358 -3.16819 -8.98307
upperneck 20.4996 -3.21554 4.58802
head 9.16881 -1.71328 2.67188
rclavicle -1.73898e-014 -5.1684e-015
rhumerus -29.7203 -14.4371 -78.5951
rradius 31.0194
rwrist 7.60567
rhand -12.101 11.4275
rfingers 7.12502
rthumb 13.9597 -18.0838
lclavicle -1.73898e-014 -5.1684e-015
lhumerus -39.4632 26.3487 74.485
lradius 17.6031
lwrist -18.9496
lhand -13.0805 24.6514
lfingers 7.12502
lthumb 13.0156 54.2254
rfemur 0.427988 0.834565 22.6694
rtibia 50.9792
rfoot 14.6452 6.50963
rtoes 5.65538
lfemur -18.6019 1.08053 -24.1624
ltibia 24.1246
lfoot -4.79228 -2.40079
ltoes 6.42788
17
root 1.3386 17.5558 -24.111 -1.683 -4.05871 0.600236
lowerback 4.7444 1.22412 -0.368213
upperback -0.0376016 1.65331 1.52129
thorax -2.75383 0.838806 1.65464
lowerneck -15.1927 -3.07655 -9.00146
upperneck 20.2397 -3.09694 4.69805
head 9.0819 -1.64312 2.72501
rclavicle 2.43791e-014 1.31198e-014
rhumerus -29.9184 -14.2613 -78.6813
rradius 30.8763
rwrist 7.53863
rhand -11.8236 11.4963
rfingers 7.12502
rthumb 14.227 -17.9964
lclavicle 2.43791e-014 1.31198e-014
lhumerus -38.9167 25.3291 75.3171
lradius 17.9257
lwrist -17.7375
lhand -12.8126 25.5564
lfingers 7.12502
lthumb 13.2738 55.1137
rfemur -1.17138 0.903421 21.8701
rtibia 53.6337
rfoot 16.4841 6.96109
rtoes 7.40504
lfemur -17.7314 1.25249 -24.8291
ltibia 23.8696
lfoot -4.82018 -2.12415
ltoes 6.84794
18
root 1.34755 17.5674 -23.9509 -1.81406 -3.99064 1.16497
lowerback 4.62394 1.22102 -0.828581
upperback 0.255545 1.61617 1.32491
thorax -2.39028 0.82138 1.71934
lowerneck -15.7741 -3.10949 -8.95892
upperneck 20.1603 -3.09581 4.70033
head 9.16041 -1.63082 2.71441
rclavicle 7.71533e-015 -7.95139e-016
rhumerus -29.8396 -14.0718 -78.905
rradius 30.8415
rwrist 7.13094
rhand -11.2845 11.8089
rfingers 7.12502
rthumb 14.7464 -17.6466
lclavicle 7.71533e-015 -7.95139e-016
lhumerus -38.1189 23.6717 76.5457
lradius 18.4976
lwrist -16.1211
lhand -12.6174 26.4578
lfingers 7.12502
lthumb 13.462 56.0028
rfemur -2.68922 0.634402 20.9789
rtibia 56.2483
rfoot 16.8884 6.7967
rtoes 8.85682
lfemur -16.9488 1.23844 -25.5908
ltibia 23.6764
lfoot -4.89611 -2.03191
ltoes 7.34528
19
root 1.35318 17.5692 -23.7921 -1.93166 -3.64635 1.66476
lowerback 4.78327 1.09486 -1.34234
upperback 0.387234 1.41648 1.21297
thorax -2.34634 0.725353 1.90466
lowerneck -16.4643 -3.18098 -8.9313
upperneck 20.3052 -3.11117 4.57972
head 9.33701 -1.64275 2.6631
rclavicle -1.51076e-014 -7.15625e-015
rhumerus -29.7613 -13.9064 -79.0389
rradius 30.5505
rwrist 7.05433
rhand -11.4513 11.7688
rfingers 7.12502
rthumb 14.5857 -17.6983
lclavicle -1.51076e-014 -7.15625e-015
lhumerus -37.5201 22.4115 77.4518
lradius 18.8264
lwrist -14.7099
lhand -13.2708 24.7862
lfingers 7.12502
lthumb 12.8322 54.3718
rfemur -4.15982 0.0278042 20.2118
rtibia 58.7323
rfoot 15.812 6.16495
rtoes 8.55436
lfemur -16.1755 1.09486 -26.2721
ltibia 23.4242
lfoot -4.93492 -2.00129
ltoes 8.28989
20
root 1.35929 17.5731 -23.6354 -1.91296 -3.54759 2.01186
lowerback 4.91521 1.03288 -1.68441
upperback 0.315391 1.31232 1.14507
thorax -2.49582 0.678651 2.03133
lowerneck -16.4859 -3.13075 -8.91449
upperneck 20.1597 -3.02972 4.53391
head 9.28327 -1.60626 2.6533
rclavicle 2.04997e-016 1.98785e-015
rhumerus -29.8747 -13.8694 -79.0373
rradius 30.0606
rwrist 7.35372
rhand -11.7779 11.3132
rfingers 7.12502
rthumb 14.271 -18.1764
lclavicle 2.04997e-016 1.98785e-015
lhumerus -37.1882 23.534 76.6235
lradius 17.5225
lwrist -15.7047
lhand -15.0178 18.9424
lfingers 7.12502
lthumb 11.1476 48.6263
rfemur -5.78061 -0.502854 19.6076
rtibia 61.0084
rfoot 14.3222 5.24149
rtoes 7.73503
lfemur -15.5219 0.974377 -26.7606
ltibia 23.2046
lfoot -5.0968 -1.78629
ltoes 8.80691
21
root 1.36965 17.589 -23.4783 -1.9221 -3.51307 2.41597
lowerback 4.98645 0.910317 -2.03916
upperback 0.181549 1.12618 1.07848
thorax -2.67024 0.592828 2.17353
lowerneck -16.0006 -2.93879 -8.87647
upperneck 19.8492 -2.78088 4.39378
head 9.06581 -1.50348 2.62985
rclavicle -7.10034e-015 3.18055e-015
rhumerus -30.1656 -13.5468 -79.0639
rradius 29.6319
rwrist 7.76234
rhand -11.9959 11.5493
rfingers 7.12502
rthumb 14.061 -17.9551
lclavicle -7.10034e-015 3.18055e-015
lhumerus -37.1563 20.4127 78.5575
lradius 19.5259
lwrist -12.9825
lhand -13.9047 23.9741
lfingers 7.12502
lthumb 12.221 53.5971
rfemur -7.36782 -0.955505 18.9339
rtibia 63.0644
rfoot 12.4621 3.82739
rtoes 6.10929
lfemur -14.8527 0.903737 -27.3249
ltibia 23.0838
lfoot -5.45615 -1.65571
ltoes 8.25857
22
root 1.37175 17.5974 -23.3289 -1.99441 -3.28576 2.47079
lowerback 5.07998 0.705322 -2.11674
upperback 0.167833 0.847877 1.11864
thorax -2.7237 0.456121 2.27824
lowerneck -15.5717 -2.79406 -9.01326
upperneck 19.5606 -2.57932 4.3863
head 8.87572 -1.42051 2.67427
rclavicle -1.58593e-014 -1.59028e-015
rhumerus -30.4133 -12.9821 -79.1741
rradius 29.4363
rwrist 7.89181
rhand -11.7416 12.0932
rfingers 7.12502
rthumb 14.306 -17.394
lclavicle -1.58593e-014 -1.59028e-015
lhumerus -37.0188 19.3472 79.1863
lradius 20.3483
lwrist -12.1807
lhand -13.391 25.4153
lfingers 7.12502
lthumb 12.7163 55.0081
rfemur -8.80646 -1.52335 18.7608
rtibia 64.8893
rfoot 10.3338 1.92985
rtoes 2.9872
lfemur -14.1949 0.81451 -27.4586
ltibia 23.0693
lfoot -5.76896 -1.73532
ltoes 8.24383
23
root 1.37061 17.5952 -23.1857 -2.06883 -3.04528 2.4641
lowerback 5.24994 0.621324 -2.20426
upperback 0.252345 0.72963 1.18674
thorax -2.72732 0.397817 2.40577
lowerneck -15.6474 -2.75239 -9.12054
upperneck 19.5269 -2.49132 4.41045
head 8.87353 -1.38323 2.71061
rclavicle 6.89534e-015 8.74653e-015
rhumerus -30.5557 -13.0995 -79.0637
rradius 29.3068
rwrist 8.47285
rhand -11.6866 11.7231
rfingers 7.12502
rthumb 14.359 -17.7603
lclavicle 6.89534e-015 8.74653e-015
lhumerus -36.4606 18.872 79.5592
lradius 20.578
lwrist -12.0095
lhand -13.3104 25.2525
lfingers 7.12502
lthumb 12.7939 54.8404
rfemur -10.2186 -2.08083 18.6884
rtibia 66.5491
rfoot 8.64131 0.290235
rtoes 1.32252
lfemur -13.5615 0.799187 -27.5057
ltibia 23.0389
lfoot -5.81165 -1.80857
ltoes 9.43734
24
root 1.37461 17.5967 -23.039 -2.21875 -2.93347 2.40357
lowerback 5.52734 0.590276 -2.18052
upperback 0.33491 0.686611 1.25702
thorax -2.79577 0.376428 2.46676
lowerneck -15.8041 -2.71826 -9.06416
upperneck 19.5431 -2.4074 4.25265
head 8.89925 -1.35497 2.65681
rclavicle 8.85834e-015 5.56597e-015
rhumerus -30.5763 -13.4683 -78.8765
rradius 28.9592
rwrist 9.17372
rhand -11.8182 11.047
rfingers 7.12502
rthumb 14.2322 -18.4453
lclavicle 8.85834e-015 5.56597e-015
lhumerus -35.8939 18.7523 79.7529
lradius 20.6666
lwrist -12.207
lhand -13.7958 25.122
lfingers 7.12502
lthumb 12.326 54.7387
rfemur -11.5813 -2.5469 18.6375
rtibia 68.0123
rfoot 7.33377 -1.09989
rtoes 0.819522
lfemur -12.8558 0.744353 -27.4921
ltibia 23.0678
lfoot -5.97348 -1.74315
ltoes 9.57404
25
root 1.37679 17.602 -22.8925 -2.39455 -2.69012 2.57705
lowerback 5.75208 0.502816 -2.30786
upperback 0.444848 0.555393 1.17396
thorax -2.80084 0.310917 2.46225
lowerneck -15.9937 -2.75591 -8.98662
upperneck 19.5526 -2.44514 4.18189
head 8.93796 -1.37268 2.61408
rclavicle -1.02498e-014 0
rhumerus -30.5961 -13.9727 -78.8182
rradius 28.5922
rwrist 9.81987
rhand -11.5908 11.7406
rfingers 7.12502
rthumb 14.4513 -17.7362
lclavicle -1.02498e-014 0
lhumerus -35.2386 19.1442 79.5293
lradius 20.4518
lwrist -12.8703
lhand -14.2515 25.0621
lfingers 7.12502
lthumb 11.8866 54.7046
rfemur -12.8278 -3.13026 18.3297
rtibia 69.2276
rfoot 6.30093 -2.47779
rtoes 1.02438
lfemur -12.1749 0.802788 -27.7255
ltibia 23.1872
lfoot -6.73235 -1.97075
ltoes 8.37733
26
root 1.37649 17.5997 -22.7464 -2.48988 -2.45002 2.81258
lowerback 5.81725 0.406368 -2.41155
upperback 0.563462 0.414512 1.0114
thorax -2.70591 0.238372 2.36402
lowerneck -16.1381 -2.82698 -8.83738
upperneck 19.4794 -2.54488 4.08257
head 8.94286 -1.41632 2.541
rclavicle 8.7341e-015 0
rhumerus -30.7718 -14.1992 -78.9364
rradius 28.5795
rwrist 10.1764
rhand -11.5712 12.2453
rfingers 7.12502
rthumb 14.4702 -17.2302
lclavicle 8.7341e-015 0
lhumerus -34.4991 19.0879 79.4201
lradius 20.1898
lwrist -12.9416
lhand -14.9634 24.3236
lfingers 7.12502
lthumb 11.2 54.0047
rfemur -14.131 -3.69804 17.9762
rtibia 70.21
rfoot 5.2782 -3.54515
rtoes 1.41836
lfemur -11.5796 0.874846 -28.0081
ltibia 23.3099
lfoot -7.49379 -2.14137
ltoes 7.89141
27
root 1.37691 17.5868 -22.5963 -2.52678 -2.37657 2.8595
lowerback 5.87238 0.335467 -2.41832
upperback 0.579056 0.318063 0.997967
thorax -2.71493 0.190266 2.3617
lowerneck -16.0382 -2.81943 -8.8432
upperneck 19.3518 -2.53745 4.06835
head 8.88031 -1.4138 2.53715
rclavicle 2.90723e-015 -6.36111e-015
rhumerus -31.1334 -14.5092 -78.8014
rradius 28.5443
rwrist 10.8975
rhand -11.5955 11.6076
rfingers 7.12502
rthumb 14.4468 -17.8695
lclavicle 2.90723e-015 -6.36111e-015
lhumerus -34.1411 18.9771 79.3801
lradius 20.0129
lwrist -12.6605
lhand -16.2746 22.3917
lfingers 7.12502
lthumb 9.93524 52.1372
rfemur -15.4886 -3.9929 17.8962
rtibia 70.9582
rfoot 4.37758 -4.23064
rtoes 2.31757
lfemur -11.0303 0.952006 -28.0734
ltibia 23.4058
lfoot -7.9228 -2.1185
ltoes 8.8704
28
root 1.37795 17.574 -22.4486 -2.74385 -2.39756 3.10445
lowerback 6.18794 0.317216 -2.79269
upperback 0.448241 0.262373 1.07218
thorax -3.02575 0.173796 2.65399
lowerneck -15.2982 -2.75099 -9.04871
upperneck 19.1777 -2.45058 4.02241
head 8.68368 -1.39751 2.56786
rclavicle -3.52843e-015 9.54166e-015
rhumerus -31.6847 -14.6041 -78.4178
rradius 28.3133
rwrist 11.3221
rhand -11.6645 11.1869
rfingers 7.12502
rthumb 14.3803 -18.2949
lclavicle -3.52843e-015 9.54166e-015
lhumerus -34.2895 18.9426 79.4247
lradius 20.6905
lwrist -13.7504
lhand -14.35 25.054
lfingers 7.12502
lthumb 11.7916 54.7021
rfemur -16.6092 -4.18152 17.5776
rtibia 71.5002
rfoot 3.60383 -4.65111
rtoes 3.82739
lfemur -10.3519 1.21639 -28.3575
ltibia 23.5532
lfoot -8.45558 -2.21021
ltoes 9.27859
